<mxfile host="app.diagrams.net" modified="2023-11-25T18:21:44.294Z" agent="Mozilla/5.0 (Macintosh; Intel Mac OS X 10_15_7) AppleWebKit/537.36 (KHTML, like Gecko) Chrome/117.0.0.0 Safari/537.36" etag="JBPvp91nzbIuS3PLcynR" version="22.1.4" type="device">
  <diagram name="Page-1" id="zNQPjltQWeBeclRM8Xwi">
    <mxGraphModel dx="1306" dy="801" grid="1" gridSize="10" guides="1" tooltips="1" connect="1" arrows="1" fold="1" page="1" pageScale="1" pageWidth="850" pageHeight="1100" math="0" shadow="0">
      <root>
        <mxCell id="0" />
        <mxCell id="1" parent="0" />
        <mxCell id="XqFeGkBjHnRNmWFXuL38-5" value="" style="rounded=0;whiteSpace=wrap;html=1;fillColor=#ffe6cc;strokeColor=#d79b00;" parent="1" vertex="1">
          <mxGeometry x="440" y="250" width="80" height="40" as="geometry" />
        </mxCell>
        <mxCell id="XqFeGkBjHnRNmWFXuL38-10" value="" style="rounded=0;whiteSpace=wrap;html=1;fillColor=#ffe6cc;strokeColor=#d79b00;" parent="1" vertex="1">
          <mxGeometry x="560" y="250" width="80" height="40" as="geometry" />
        </mxCell>
        <mxCell id="XqFeGkBjHnRNmWFXuL38-11" value="" style="rounded=0;whiteSpace=wrap;html=1;fillColor=#ffe6cc;strokeColor=#d79b00;" parent="1" vertex="1">
          <mxGeometry x="680" y="250" width="80" height="40" as="geometry" />
        </mxCell>
        <mxCell id="XqFeGkBjHnRNmWFXuL38-61" value="Park 400 ft × 800 ft" style="rounded=0;whiteSpace=wrap;html=1;fillColor=#d5e8d4;strokeColor=#82b366;" parent="1" vertex="1">
          <mxGeometry x="80" y="250" width="320" height="640" as="geometry" />
        </mxCell>
        <mxCell id="XqFeGkBjHnRNmWFXuL38-13" value="&lt;b&gt;Central area 340 ft × 400 ft&lt;br&gt;&lt;/b&gt;(gov offices = post office, DMV, police, fire dept)&lt;br&gt;&lt;i style=&quot;font-weight: bold;&quot;&gt;(each floor must have elevators, freight elevators, etc. for ? ft x ? ft) &lt;/i&gt;pool, billiard&lt;br&gt;&lt;br&gt;&lt;br&gt;&lt;br&gt;&lt;br&gt;&lt;br&gt;&lt;br&gt;&lt;br&gt;&lt;br&gt;&lt;br&gt;&lt;br&gt;&lt;br&gt;&lt;br&gt;&lt;br&gt;." style="rounded=0;whiteSpace=wrap;html=1;imageWidth=72;fillColor=#fff2cc;strokeColor=#d6b656;" parent="1" vertex="1">
          <mxGeometry x="440" y="330" width="320" height="280" as="geometry" />
        </mxCell>
        <mxCell id="XqFeGkBjHnRNmWFXuL38-22" value="" style="shape=table;startSize=0;container=1;collapsible=0;childLayout=tableLayout;fontSize=16;fillColor=#fff2cc;strokeColor=#d6b656;" parent="1" vertex="1">
          <mxGeometry x="450" y="403" width="300" height="269" as="geometry" />
        </mxCell>
        <mxCell id="XqFeGkBjHnRNmWFXuL38-23" value="" style="shape=tableRow;horizontal=0;startSize=0;swimlaneHead=0;swimlaneBody=0;strokeColor=inherit;top=0;left=0;bottom=0;right=0;collapsible=0;dropTarget=0;fillColor=none;points=[[0,0.5],[1,0.5]];portConstraint=eastwest;fontSize=16;" parent="XqFeGkBjHnRNmWFXuL38-22" vertex="1">
          <mxGeometry width="300" height="22" as="geometry" />
        </mxCell>
        <mxCell id="XqFeGkBjHnRNmWFXuL38-24" value="HEB" style="shape=partialRectangle;html=1;whiteSpace=wrap;connectable=0;strokeColor=inherit;overflow=hidden;fillColor=none;top=0;left=0;bottom=0;right=0;pointerEvents=1;fontSize=11;" parent="XqFeGkBjHnRNmWFXuL38-23" vertex="1">
          <mxGeometry width="130" height="22" as="geometry">
            <mxRectangle width="130" height="22" as="alternateBounds" />
          </mxGeometry>
        </mxCell>
        <mxCell id="XqFeGkBjHnRNmWFXuL38-25" value="1st floor" style="shape=partialRectangle;html=1;whiteSpace=wrap;connectable=0;strokeColor=inherit;overflow=hidden;fillColor=none;top=0;left=0;bottom=0;right=0;pointerEvents=1;fontSize=11;" parent="XqFeGkBjHnRNmWFXuL38-23" vertex="1">
          <mxGeometry x="130" width="60" height="22" as="geometry">
            <mxRectangle width="60" height="22" as="alternateBounds" />
          </mxGeometry>
        </mxCell>
        <mxCell id="XqFeGkBjHnRNmWFXuL38-26" value="half" style="shape=partialRectangle;html=1;whiteSpace=wrap;connectable=0;strokeColor=inherit;overflow=hidden;fillColor=none;top=0;left=0;bottom=0;right=0;pointerEvents=1;fontSize=11;" parent="XqFeGkBjHnRNmWFXuL38-23" vertex="1">
          <mxGeometry x="190" width="50" height="22" as="geometry">
            <mxRectangle width="50" height="22" as="alternateBounds" />
          </mxGeometry>
        </mxCell>
        <mxCell id="XqFeGkBjHnRNmWFXuL38-35" value="70k sq ft" style="shape=partialRectangle;html=1;whiteSpace=wrap;connectable=0;strokeColor=inherit;overflow=hidden;fillColor=none;top=0;left=0;bottom=0;right=0;pointerEvents=1;fontSize=11;" parent="XqFeGkBjHnRNmWFXuL38-23" vertex="1">
          <mxGeometry x="240" width="60" height="22" as="geometry">
            <mxRectangle width="60" height="22" as="alternateBounds" />
          </mxGeometry>
        </mxCell>
        <mxCell id="XqFeGkBjHnRNmWFXuL38-75" style="shape=tableRow;horizontal=0;startSize=0;swimlaneHead=0;swimlaneBody=0;strokeColor=inherit;top=0;left=0;bottom=0;right=0;collapsible=0;dropTarget=0;fillColor=none;points=[[0,0.5],[1,0.5]];portConstraint=eastwest;fontSize=16;" parent="XqFeGkBjHnRNmWFXuL38-22" vertex="1">
          <mxGeometry y="22" width="300" height="22" as="geometry" />
        </mxCell>
        <mxCell id="XqFeGkBjHnRNmWFXuL38-76" value="cafes" style="shape=partialRectangle;html=1;whiteSpace=wrap;connectable=0;strokeColor=inherit;overflow=hidden;fillColor=none;top=0;left=0;bottom=0;right=0;pointerEvents=1;fontSize=11;" parent="XqFeGkBjHnRNmWFXuL38-75" vertex="1">
          <mxGeometry width="130" height="22" as="geometry">
            <mxRectangle width="130" height="22" as="alternateBounds" />
          </mxGeometry>
        </mxCell>
        <mxCell id="XqFeGkBjHnRNmWFXuL38-77" value="2nd floor" style="shape=partialRectangle;html=1;whiteSpace=wrap;connectable=0;strokeColor=inherit;overflow=hidden;fillColor=none;top=0;left=0;bottom=0;right=0;pointerEvents=1;fontSize=11;" parent="XqFeGkBjHnRNmWFXuL38-75" vertex="1">
          <mxGeometry x="130" width="60" height="22" as="geometry">
            <mxRectangle width="60" height="22" as="alternateBounds" />
          </mxGeometry>
        </mxCell>
        <mxCell id="XqFeGkBjHnRNmWFXuL38-78" style="shape=partialRectangle;html=1;whiteSpace=wrap;connectable=0;strokeColor=inherit;overflow=hidden;fillColor=none;top=0;left=0;bottom=0;right=0;pointerEvents=1;fontSize=11;" parent="XqFeGkBjHnRNmWFXuL38-75" vertex="1">
          <mxGeometry x="190" width="50" height="22" as="geometry">
            <mxRectangle width="50" height="22" as="alternateBounds" />
          </mxGeometry>
        </mxCell>
        <mxCell id="XqFeGkBjHnRNmWFXuL38-79" style="shape=partialRectangle;html=1;whiteSpace=wrap;connectable=0;strokeColor=inherit;overflow=hidden;fillColor=none;top=0;left=0;bottom=0;right=0;pointerEvents=1;fontSize=11;" parent="XqFeGkBjHnRNmWFXuL38-75" vertex="1">
          <mxGeometry x="240" width="60" height="22" as="geometry">
            <mxRectangle width="60" height="22" as="alternateBounds" />
          </mxGeometry>
        </mxCell>
        <mxCell id="XqFeGkBjHnRNmWFXuL38-131" style="shape=tableRow;horizontal=0;startSize=0;swimlaneHead=0;swimlaneBody=0;strokeColor=inherit;top=0;left=0;bottom=0;right=0;collapsible=0;dropTarget=0;fillColor=none;points=[[0,0.5],[1,0.5]];portConstraint=eastwest;fontSize=16;" parent="XqFeGkBjHnRNmWFXuL38-22" vertex="1">
          <mxGeometry y="44" width="300" height="22" as="geometry" />
        </mxCell>
        <mxCell id="XqFeGkBjHnRNmWFXuL38-132" value="restaurants, foot courts" style="shape=partialRectangle;html=1;whiteSpace=wrap;connectable=0;strokeColor=inherit;overflow=hidden;fillColor=none;top=0;left=0;bottom=0;right=0;pointerEvents=1;fontSize=11;" parent="XqFeGkBjHnRNmWFXuL38-131" vertex="1">
          <mxGeometry width="130" height="22" as="geometry">
            <mxRectangle width="130" height="22" as="alternateBounds" />
          </mxGeometry>
        </mxCell>
        <mxCell id="XqFeGkBjHnRNmWFXuL38-133" value="3rd floor" style="shape=partialRectangle;html=1;whiteSpace=wrap;connectable=0;strokeColor=inherit;overflow=hidden;fillColor=none;top=0;left=0;bottom=0;right=0;pointerEvents=1;fontSize=11;" parent="XqFeGkBjHnRNmWFXuL38-131" vertex="1">
          <mxGeometry x="130" width="60" height="22" as="geometry">
            <mxRectangle width="60" height="22" as="alternateBounds" />
          </mxGeometry>
        </mxCell>
        <mxCell id="XqFeGkBjHnRNmWFXuL38-134" style="shape=partialRectangle;html=1;whiteSpace=wrap;connectable=0;strokeColor=inherit;overflow=hidden;fillColor=none;top=0;left=0;bottom=0;right=0;pointerEvents=1;fontSize=11;" parent="XqFeGkBjHnRNmWFXuL38-131" vertex="1">
          <mxGeometry x="190" width="50" height="22" as="geometry">
            <mxRectangle width="50" height="22" as="alternateBounds" />
          </mxGeometry>
        </mxCell>
        <mxCell id="XqFeGkBjHnRNmWFXuL38-135" style="shape=partialRectangle;html=1;whiteSpace=wrap;connectable=0;strokeColor=inherit;overflow=hidden;fillColor=none;top=0;left=0;bottom=0;right=0;pointerEvents=1;fontSize=11;" parent="XqFeGkBjHnRNmWFXuL38-131" vertex="1">
          <mxGeometry x="240" width="60" height="22" as="geometry">
            <mxRectangle width="60" height="22" as="alternateBounds" />
          </mxGeometry>
        </mxCell>
        <mxCell id="XqFeGkBjHnRNmWFXuL38-27" value="" style="shape=tableRow;horizontal=0;startSize=0;swimlaneHead=0;swimlaneBody=0;strokeColor=inherit;top=0;left=0;bottom=0;right=0;collapsible=0;dropTarget=0;fillColor=none;points=[[0,0.5],[1,0.5]];portConstraint=eastwest;fontSize=16;" parent="XqFeGkBjHnRNmWFXuL38-22" vertex="1">
          <mxGeometry y="66" width="300" height="20" as="geometry" />
        </mxCell>
        <mxCell id="XqFeGkBjHnRNmWFXuL38-28" value="Target" style="shape=partialRectangle;html=1;whiteSpace=wrap;connectable=0;strokeColor=inherit;overflow=hidden;fillColor=none;top=0;left=0;bottom=0;right=0;pointerEvents=1;fontSize=11;" parent="XqFeGkBjHnRNmWFXuL38-27" vertex="1">
          <mxGeometry width="130" height="20" as="geometry">
            <mxRectangle width="130" height="20" as="alternateBounds" />
          </mxGeometry>
        </mxCell>
        <mxCell id="XqFeGkBjHnRNmWFXuL38-29" value="4th floor" style="shape=partialRectangle;html=1;whiteSpace=wrap;connectable=0;strokeColor=inherit;overflow=hidden;fillColor=none;top=0;left=0;bottom=0;right=0;pointerEvents=1;fontSize=11;" parent="XqFeGkBjHnRNmWFXuL38-27" vertex="1">
          <mxGeometry x="130" width="60" height="20" as="geometry">
            <mxRectangle width="60" height="20" as="alternateBounds" />
          </mxGeometry>
        </mxCell>
        <mxCell id="XqFeGkBjHnRNmWFXuL38-30" value="full" style="shape=partialRectangle;html=1;whiteSpace=wrap;connectable=0;strokeColor=inherit;overflow=hidden;fillColor=none;top=0;left=0;bottom=0;right=0;pointerEvents=1;fontSize=11;" parent="XqFeGkBjHnRNmWFXuL38-27" vertex="1">
          <mxGeometry x="190" width="50" height="20" as="geometry">
            <mxRectangle width="50" height="20" as="alternateBounds" />
          </mxGeometry>
        </mxCell>
        <mxCell id="XqFeGkBjHnRNmWFXuL38-36" value="130k" style="shape=partialRectangle;html=1;whiteSpace=wrap;connectable=0;strokeColor=inherit;overflow=hidden;fillColor=none;top=0;left=0;bottom=0;right=0;pointerEvents=1;fontSize=11;" parent="XqFeGkBjHnRNmWFXuL38-27" vertex="1">
          <mxGeometry x="240" width="60" height="20" as="geometry">
            <mxRectangle width="60" height="20" as="alternateBounds" />
          </mxGeometry>
        </mxCell>
        <mxCell id="XqFeGkBjHnRNmWFXuL38-85" style="shape=tableRow;horizontal=0;startSize=0;swimlaneHead=0;swimlaneBody=0;strokeColor=inherit;top=0;left=0;bottom=0;right=0;collapsible=0;dropTarget=0;fillColor=none;points=[[0,0.5],[1,0.5]];portConstraint=eastwest;fontSize=16;" parent="XqFeGkBjHnRNmWFXuL38-22" vertex="1">
          <mxGeometry y="86" width="300" height="20" as="geometry" />
        </mxCell>
        <mxCell id="XqFeGkBjHnRNmWFXuL38-86" value="open area for rental" style="shape=partialRectangle;html=1;whiteSpace=wrap;connectable=0;strokeColor=inherit;overflow=hidden;fillColor=none;top=0;left=0;bottom=0;right=0;pointerEvents=1;fontSize=11;" parent="XqFeGkBjHnRNmWFXuL38-85" vertex="1">
          <mxGeometry width="130" height="20" as="geometry">
            <mxRectangle width="130" height="20" as="alternateBounds" />
          </mxGeometry>
        </mxCell>
        <mxCell id="XqFeGkBjHnRNmWFXuL38-87" value="5th floor" style="shape=partialRectangle;html=1;whiteSpace=wrap;connectable=0;strokeColor=inherit;overflow=hidden;fillColor=none;top=0;left=0;bottom=0;right=0;pointerEvents=1;fontSize=11;" parent="XqFeGkBjHnRNmWFXuL38-85" vertex="1">
          <mxGeometry x="130" width="60" height="20" as="geometry">
            <mxRectangle width="60" height="20" as="alternateBounds" />
          </mxGeometry>
        </mxCell>
        <mxCell id="XqFeGkBjHnRNmWFXuL38-88" style="shape=partialRectangle;html=1;whiteSpace=wrap;connectable=0;strokeColor=inherit;overflow=hidden;fillColor=none;top=0;left=0;bottom=0;right=0;pointerEvents=1;fontSize=11;" parent="XqFeGkBjHnRNmWFXuL38-85" vertex="1">
          <mxGeometry x="190" width="50" height="20" as="geometry">
            <mxRectangle width="50" height="20" as="alternateBounds" />
          </mxGeometry>
        </mxCell>
        <mxCell id="XqFeGkBjHnRNmWFXuL38-89" style="shape=partialRectangle;html=1;whiteSpace=wrap;connectable=0;strokeColor=inherit;overflow=hidden;fillColor=none;top=0;left=0;bottom=0;right=0;pointerEvents=1;fontSize=11;" parent="XqFeGkBjHnRNmWFXuL38-85" vertex="1">
          <mxGeometry x="240" width="60" height="20" as="geometry">
            <mxRectangle width="60" height="20" as="alternateBounds" />
          </mxGeometry>
        </mxCell>
        <mxCell id="XqFeGkBjHnRNmWFXuL38-80" style="shape=tableRow;horizontal=0;startSize=0;swimlaneHead=0;swimlaneBody=0;strokeColor=inherit;top=0;left=0;bottom=0;right=0;collapsible=0;dropTarget=0;fillColor=none;points=[[0,0.5],[1,0.5]];portConstraint=eastwest;fontSize=16;" parent="XqFeGkBjHnRNmWFXuL38-22" vertex="1">
          <mxGeometry y="106" width="300" height="20" as="geometry" />
        </mxCell>
        <mxCell id="XqFeGkBjHnRNmWFXuL38-81" value="tool sharing" style="shape=partialRectangle;html=1;whiteSpace=wrap;connectable=0;strokeColor=inherit;overflow=hidden;fillColor=none;top=0;left=0;bottom=0;right=0;pointerEvents=1;fontSize=11;" parent="XqFeGkBjHnRNmWFXuL38-80" vertex="1">
          <mxGeometry width="130" height="20" as="geometry">
            <mxRectangle width="130" height="20" as="alternateBounds" />
          </mxGeometry>
        </mxCell>
        <mxCell id="XqFeGkBjHnRNmWFXuL38-82" value="6th floor" style="shape=partialRectangle;html=1;whiteSpace=wrap;connectable=0;strokeColor=inherit;overflow=hidden;fillColor=none;top=0;left=0;bottom=0;right=0;pointerEvents=1;fontSize=11;" parent="XqFeGkBjHnRNmWFXuL38-80" vertex="1">
          <mxGeometry x="130" width="60" height="20" as="geometry">
            <mxRectangle width="60" height="20" as="alternateBounds" />
          </mxGeometry>
        </mxCell>
        <mxCell id="XqFeGkBjHnRNmWFXuL38-83" style="shape=partialRectangle;html=1;whiteSpace=wrap;connectable=0;strokeColor=inherit;overflow=hidden;fillColor=none;top=0;left=0;bottom=0;right=0;pointerEvents=1;fontSize=11;" parent="XqFeGkBjHnRNmWFXuL38-80" vertex="1">
          <mxGeometry x="190" width="50" height="20" as="geometry">
            <mxRectangle width="50" height="20" as="alternateBounds" />
          </mxGeometry>
        </mxCell>
        <mxCell id="XqFeGkBjHnRNmWFXuL38-84" style="shape=partialRectangle;html=1;whiteSpace=wrap;connectable=0;strokeColor=inherit;overflow=hidden;fillColor=none;top=0;left=0;bottom=0;right=0;pointerEvents=1;fontSize=11;" parent="XqFeGkBjHnRNmWFXuL38-80" vertex="1">
          <mxGeometry x="240" width="60" height="20" as="geometry">
            <mxRectangle width="60" height="20" as="alternateBounds" />
          </mxGeometry>
        </mxCell>
        <mxCell id="XqFeGkBjHnRNmWFXuL38-119" style="shape=tableRow;horizontal=0;startSize=0;swimlaneHead=0;swimlaneBody=0;strokeColor=inherit;top=0;left=0;bottom=0;right=0;collapsible=0;dropTarget=0;fillColor=none;points=[[0,0.5],[1,0.5]];portConstraint=eastwest;fontSize=16;" parent="XqFeGkBjHnRNmWFXuL38-22" vertex="1">
          <mxGeometry y="126" width="300" height="23" as="geometry" />
        </mxCell>
        <mxCell id="XqFeGkBjHnRNmWFXuL38-120" value="music practice room" style="shape=partialRectangle;html=1;whiteSpace=wrap;connectable=0;strokeColor=inherit;overflow=hidden;fillColor=none;top=0;left=0;bottom=0;right=0;pointerEvents=1;fontSize=11;" parent="XqFeGkBjHnRNmWFXuL38-119" vertex="1">
          <mxGeometry width="130" height="23" as="geometry">
            <mxRectangle width="130" height="23" as="alternateBounds" />
          </mxGeometry>
        </mxCell>
        <mxCell id="XqFeGkBjHnRNmWFXuL38-121" value="6th floor" style="shape=partialRectangle;html=1;whiteSpace=wrap;connectable=0;strokeColor=inherit;overflow=hidden;fillColor=none;top=0;left=0;bottom=0;right=0;pointerEvents=1;fontSize=11;" parent="XqFeGkBjHnRNmWFXuL38-119" vertex="1">
          <mxGeometry x="130" width="60" height="23" as="geometry">
            <mxRectangle width="60" height="23" as="alternateBounds" />
          </mxGeometry>
        </mxCell>
        <mxCell id="XqFeGkBjHnRNmWFXuL38-122" style="shape=partialRectangle;html=1;whiteSpace=wrap;connectable=0;strokeColor=inherit;overflow=hidden;fillColor=none;top=0;left=0;bottom=0;right=0;pointerEvents=1;fontSize=11;" parent="XqFeGkBjHnRNmWFXuL38-119" vertex="1">
          <mxGeometry x="190" width="50" height="23" as="geometry">
            <mxRectangle width="50" height="23" as="alternateBounds" />
          </mxGeometry>
        </mxCell>
        <mxCell id="XqFeGkBjHnRNmWFXuL38-123" style="shape=partialRectangle;html=1;whiteSpace=wrap;connectable=0;strokeColor=inherit;overflow=hidden;fillColor=none;top=0;left=0;bottom=0;right=0;pointerEvents=1;fontSize=11;" parent="XqFeGkBjHnRNmWFXuL38-119" vertex="1">
          <mxGeometry x="240" width="60" height="23" as="geometry">
            <mxRectangle width="60" height="23" as="alternateBounds" />
          </mxGeometry>
        </mxCell>
        <mxCell id="XqFeGkBjHnRNmWFXuL38-31" value="" style="shape=tableRow;horizontal=0;startSize=0;swimlaneHead=0;swimlaneBody=0;strokeColor=inherit;top=0;left=0;bottom=0;right=0;collapsible=0;dropTarget=0;fillColor=none;points=[[0,0.5],[1,0.5]];portConstraint=eastwest;fontSize=16;" parent="XqFeGkBjHnRNmWFXuL38-22" vertex="1">
          <mxGeometry y="149" width="300" height="20" as="geometry" />
        </mxCell>
        <mxCell id="XqFeGkBjHnRNmWFXuL38-32" value="hospital w 10 beds" style="shape=partialRectangle;html=1;whiteSpace=wrap;connectable=0;strokeColor=inherit;overflow=hidden;fillColor=none;top=0;left=0;bottom=0;right=0;pointerEvents=1;fontSize=11;" parent="XqFeGkBjHnRNmWFXuL38-31" vertex="1">
          <mxGeometry width="130" height="20" as="geometry">
            <mxRectangle width="130" height="20" as="alternateBounds" />
          </mxGeometry>
        </mxCell>
        <mxCell id="XqFeGkBjHnRNmWFXuL38-33" value="7th floor" style="shape=partialRectangle;html=1;whiteSpace=wrap;connectable=0;strokeColor=inherit;overflow=hidden;fillColor=none;top=0;left=0;bottom=0;right=0;pointerEvents=1;fontSize=11;" parent="XqFeGkBjHnRNmWFXuL38-31" vertex="1">
          <mxGeometry x="130" width="60" height="20" as="geometry">
            <mxRectangle width="60" height="20" as="alternateBounds" />
          </mxGeometry>
        </mxCell>
        <mxCell id="XqFeGkBjHnRNmWFXuL38-34" value="1/4" style="shape=partialRectangle;html=1;whiteSpace=wrap;connectable=0;strokeColor=inherit;overflow=hidden;fillColor=none;top=0;left=0;bottom=0;right=0;pointerEvents=1;fontSize=11;" parent="XqFeGkBjHnRNmWFXuL38-31" vertex="1">
          <mxGeometry x="190" width="50" height="20" as="geometry">
            <mxRectangle width="50" height="20" as="alternateBounds" />
          </mxGeometry>
        </mxCell>
        <mxCell id="XqFeGkBjHnRNmWFXuL38-37" value="30k sq ft" style="shape=partialRectangle;html=1;whiteSpace=wrap;connectable=0;strokeColor=inherit;overflow=hidden;fillColor=none;top=0;left=0;bottom=0;right=0;pointerEvents=1;fontSize=11;" parent="XqFeGkBjHnRNmWFXuL38-31" vertex="1">
          <mxGeometry x="240" width="60" height="20" as="geometry">
            <mxRectangle width="60" height="20" as="alternateBounds" />
          </mxGeometry>
        </mxCell>
        <mxCell id="XqFeGkBjHnRNmWFXuL38-100" style="shape=tableRow;horizontal=0;startSize=0;swimlaneHead=0;swimlaneBody=0;strokeColor=inherit;top=0;left=0;bottom=0;right=0;collapsible=0;dropTarget=0;fillColor=none;points=[[0,0.5],[1,0.5]];portConstraint=eastwest;fontSize=16;" parent="XqFeGkBjHnRNmWFXuL38-22" vertex="1">
          <mxGeometry y="169" width="300" height="20" as="geometry" />
        </mxCell>
        <mxCell id="XqFeGkBjHnRNmWFXuL38-101" value="gov offices" style="shape=partialRectangle;html=1;whiteSpace=wrap;connectable=0;strokeColor=inherit;overflow=hidden;fillColor=none;top=0;left=0;bottom=0;right=0;pointerEvents=1;fontSize=11;" parent="XqFeGkBjHnRNmWFXuL38-100" vertex="1">
          <mxGeometry width="130" height="20" as="geometry">
            <mxRectangle width="130" height="20" as="alternateBounds" />
          </mxGeometry>
        </mxCell>
        <mxCell id="XqFeGkBjHnRNmWFXuL38-102" value="8th floor" style="shape=partialRectangle;html=1;whiteSpace=wrap;connectable=0;strokeColor=inherit;overflow=hidden;fillColor=none;top=0;left=0;bottom=0;right=0;pointerEvents=1;fontSize=11;" parent="XqFeGkBjHnRNmWFXuL38-100" vertex="1">
          <mxGeometry x="130" width="60" height="20" as="geometry">
            <mxRectangle width="60" height="20" as="alternateBounds" />
          </mxGeometry>
        </mxCell>
        <mxCell id="XqFeGkBjHnRNmWFXuL38-103" style="shape=partialRectangle;html=1;whiteSpace=wrap;connectable=0;strokeColor=inherit;overflow=hidden;fillColor=none;top=0;left=0;bottom=0;right=0;pointerEvents=1;fontSize=11;" parent="XqFeGkBjHnRNmWFXuL38-100" vertex="1">
          <mxGeometry x="190" width="50" height="20" as="geometry">
            <mxRectangle width="50" height="20" as="alternateBounds" />
          </mxGeometry>
        </mxCell>
        <mxCell id="XqFeGkBjHnRNmWFXuL38-104" style="shape=partialRectangle;html=1;whiteSpace=wrap;connectable=0;strokeColor=inherit;overflow=hidden;fillColor=none;top=0;left=0;bottom=0;right=0;pointerEvents=1;fontSize=11;" parent="XqFeGkBjHnRNmWFXuL38-100" vertex="1">
          <mxGeometry x="240" width="60" height="20" as="geometry">
            <mxRectangle width="60" height="20" as="alternateBounds" />
          </mxGeometry>
        </mxCell>
        <mxCell id="XqFeGkBjHnRNmWFXuL38-53" style="shape=tableRow;horizontal=0;startSize=0;swimlaneHead=0;swimlaneBody=0;strokeColor=inherit;top=0;left=0;bottom=0;right=0;collapsible=0;dropTarget=0;fillColor=none;points=[[0,0.5],[1,0.5]];portConstraint=eastwest;fontSize=16;" parent="XqFeGkBjHnRNmWFXuL38-22" vertex="1">
          <mxGeometry y="189" width="300" height="20" as="geometry" />
        </mxCell>
        <mxCell id="XqFeGkBjHnRNmWFXuL38-54" value="gym" style="shape=partialRectangle;html=1;whiteSpace=wrap;connectable=0;strokeColor=inherit;overflow=hidden;fillColor=none;top=0;left=0;bottom=0;right=0;pointerEvents=1;fontSize=11;" parent="XqFeGkBjHnRNmWFXuL38-53" vertex="1">
          <mxGeometry width="130" height="20" as="geometry">
            <mxRectangle width="130" height="20" as="alternateBounds" />
          </mxGeometry>
        </mxCell>
        <mxCell id="XqFeGkBjHnRNmWFXuL38-55" value="9th floor" style="shape=partialRectangle;html=1;whiteSpace=wrap;connectable=0;strokeColor=inherit;overflow=hidden;fillColor=none;top=0;left=0;bottom=0;right=0;pointerEvents=1;fontSize=11;" parent="XqFeGkBjHnRNmWFXuL38-53" vertex="1">
          <mxGeometry x="130" width="60" height="20" as="geometry">
            <mxRectangle width="60" height="20" as="alternateBounds" />
          </mxGeometry>
        </mxCell>
        <mxCell id="XqFeGkBjHnRNmWFXuL38-56" value="1/6" style="shape=partialRectangle;html=1;whiteSpace=wrap;connectable=0;strokeColor=inherit;overflow=hidden;fillColor=none;top=0;left=0;bottom=0;right=0;pointerEvents=1;fontSize=11;" parent="XqFeGkBjHnRNmWFXuL38-53" vertex="1">
          <mxGeometry x="190" width="50" height="20" as="geometry">
            <mxRectangle width="50" height="20" as="alternateBounds" />
          </mxGeometry>
        </mxCell>
        <mxCell id="XqFeGkBjHnRNmWFXuL38-57" value="20k sq ft" style="shape=partialRectangle;html=1;whiteSpace=wrap;connectable=0;strokeColor=inherit;overflow=hidden;fillColor=none;top=0;left=0;bottom=0;right=0;pointerEvents=1;fontSize=11;" parent="XqFeGkBjHnRNmWFXuL38-53" vertex="1">
          <mxGeometry x="240" width="60" height="20" as="geometry">
            <mxRectangle width="60" height="20" as="alternateBounds" />
          </mxGeometry>
        </mxCell>
        <mxCell id="XqFeGkBjHnRNmWFXuL38-107" style="shape=tableRow;horizontal=0;startSize=0;swimlaneHead=0;swimlaneBody=0;strokeColor=inherit;top=0;left=0;bottom=0;right=0;collapsible=0;dropTarget=0;fillColor=none;points=[[0,0.5],[1,0.5]];portConstraint=eastwest;fontSize=16;" parent="XqFeGkBjHnRNmWFXuL38-22" vertex="1">
          <mxGeometry y="209" width="300" height="20" as="geometry" />
        </mxCell>
        <mxCell id="XqFeGkBjHnRNmWFXuL38-108" value="sports court" style="shape=partialRectangle;html=1;whiteSpace=wrap;connectable=0;strokeColor=inherit;overflow=hidden;fillColor=none;top=0;left=0;bottom=0;right=0;pointerEvents=1;fontSize=11;" parent="XqFeGkBjHnRNmWFXuL38-107" vertex="1">
          <mxGeometry width="130" height="20" as="geometry">
            <mxRectangle width="130" height="20" as="alternateBounds" />
          </mxGeometry>
        </mxCell>
        <mxCell id="XqFeGkBjHnRNmWFXuL38-109" value="9th floor" style="shape=partialRectangle;html=1;whiteSpace=wrap;connectable=0;strokeColor=inherit;overflow=hidden;fillColor=none;top=0;left=0;bottom=0;right=0;pointerEvents=1;fontSize=11;" parent="XqFeGkBjHnRNmWFXuL38-107" vertex="1">
          <mxGeometry x="130" width="60" height="20" as="geometry">
            <mxRectangle width="60" height="20" as="alternateBounds" />
          </mxGeometry>
        </mxCell>
        <mxCell id="XqFeGkBjHnRNmWFXuL38-110" style="shape=partialRectangle;html=1;whiteSpace=wrap;connectable=0;strokeColor=inherit;overflow=hidden;fillColor=none;top=0;left=0;bottom=0;right=0;pointerEvents=1;fontSize=11;" parent="XqFeGkBjHnRNmWFXuL38-107" vertex="1">
          <mxGeometry x="190" width="50" height="20" as="geometry">
            <mxRectangle width="50" height="20" as="alternateBounds" />
          </mxGeometry>
        </mxCell>
        <mxCell id="XqFeGkBjHnRNmWFXuL38-111" style="shape=partialRectangle;html=1;whiteSpace=wrap;connectable=0;strokeColor=inherit;overflow=hidden;fillColor=none;top=0;left=0;bottom=0;right=0;pointerEvents=1;fontSize=11;" parent="XqFeGkBjHnRNmWFXuL38-107" vertex="1">
          <mxGeometry x="240" width="60" height="20" as="geometry">
            <mxRectangle width="60" height="20" as="alternateBounds" />
          </mxGeometry>
        </mxCell>
        <mxCell id="XqFeGkBjHnRNmWFXuL38-48" style="shape=tableRow;horizontal=0;startSize=0;swimlaneHead=0;swimlaneBody=0;strokeColor=inherit;top=0;left=0;bottom=0;right=0;collapsible=0;dropTarget=0;fillColor=none;points=[[0,0.5],[1,0.5]];portConstraint=eastwest;fontSize=16;" parent="XqFeGkBjHnRNmWFXuL38-22" vertex="1">
          <mxGeometry y="229" width="300" height="20" as="geometry" />
        </mxCell>
        <mxCell id="XqFeGkBjHnRNmWFXuL38-49" value="Pets" style="shape=partialRectangle;html=1;whiteSpace=wrap;connectable=0;strokeColor=inherit;overflow=hidden;fillColor=none;top=0;left=0;bottom=0;right=0;pointerEvents=1;fontSize=11;" parent="XqFeGkBjHnRNmWFXuL38-48" vertex="1">
          <mxGeometry width="130" height="20" as="geometry">
            <mxRectangle width="130" height="20" as="alternateBounds" />
          </mxGeometry>
        </mxCell>
        <mxCell id="XqFeGkBjHnRNmWFXuL38-50" value="9th floor" style="shape=partialRectangle;html=1;whiteSpace=wrap;connectable=0;strokeColor=inherit;overflow=hidden;fillColor=none;top=0;left=0;bottom=0;right=0;pointerEvents=1;fontSize=11;" parent="XqFeGkBjHnRNmWFXuL38-48" vertex="1">
          <mxGeometry x="130" width="60" height="20" as="geometry">
            <mxRectangle width="60" height="20" as="alternateBounds" />
          </mxGeometry>
        </mxCell>
        <mxCell id="XqFeGkBjHnRNmWFXuL38-51" style="shape=partialRectangle;html=1;whiteSpace=wrap;connectable=0;strokeColor=inherit;overflow=hidden;fillColor=none;top=0;left=0;bottom=0;right=0;pointerEvents=1;fontSize=11;" parent="XqFeGkBjHnRNmWFXuL38-48" vertex="1">
          <mxGeometry x="190" width="50" height="20" as="geometry">
            <mxRectangle width="50" height="20" as="alternateBounds" />
          </mxGeometry>
        </mxCell>
        <mxCell id="XqFeGkBjHnRNmWFXuL38-52" style="shape=partialRectangle;html=1;whiteSpace=wrap;connectable=0;strokeColor=inherit;overflow=hidden;fillColor=none;top=0;left=0;bottom=0;right=0;pointerEvents=1;fontSize=11;" parent="XqFeGkBjHnRNmWFXuL38-48" vertex="1">
          <mxGeometry x="240" width="60" height="20" as="geometry">
            <mxRectangle width="60" height="20" as="alternateBounds" />
          </mxGeometry>
        </mxCell>
        <mxCell id="XqFeGkBjHnRNmWFXuL38-38" style="shape=tableRow;horizontal=0;startSize=0;swimlaneHead=0;swimlaneBody=0;strokeColor=inherit;top=0;left=0;bottom=0;right=0;collapsible=0;dropTarget=0;fillColor=none;points=[[0,0.5],[1,0.5]];portConstraint=eastwest;fontSize=16;" parent="XqFeGkBjHnRNmWFXuL38-22" vertex="1">
          <mxGeometry y="249" width="300" height="20" as="geometry" />
        </mxCell>
        <mxCell id="XqFeGkBjHnRNmWFXuL38-39" value="fruit and veggie garden" style="shape=partialRectangle;html=1;whiteSpace=wrap;connectable=0;strokeColor=inherit;overflow=hidden;fillColor=none;top=0;left=0;bottom=0;right=0;pointerEvents=1;fontSize=11;" parent="XqFeGkBjHnRNmWFXuL38-38" vertex="1">
          <mxGeometry width="130" height="20" as="geometry">
            <mxRectangle width="130" height="20" as="alternateBounds" />
          </mxGeometry>
        </mxCell>
        <mxCell id="XqFeGkBjHnRNmWFXuL38-40" value="root" style="shape=partialRectangle;html=1;whiteSpace=wrap;connectable=0;strokeColor=inherit;overflow=hidden;fillColor=none;top=0;left=0;bottom=0;right=0;pointerEvents=1;fontSize=11;" parent="XqFeGkBjHnRNmWFXuL38-38" vertex="1">
          <mxGeometry x="130" width="60" height="20" as="geometry">
            <mxRectangle width="60" height="20" as="alternateBounds" />
          </mxGeometry>
        </mxCell>
        <mxCell id="XqFeGkBjHnRNmWFXuL38-41" style="shape=partialRectangle;html=1;whiteSpace=wrap;connectable=0;strokeColor=inherit;overflow=hidden;fillColor=none;top=0;left=0;bottom=0;right=0;pointerEvents=1;fontSize=11;" parent="XqFeGkBjHnRNmWFXuL38-38" vertex="1">
          <mxGeometry x="190" width="50" height="20" as="geometry">
            <mxRectangle width="50" height="20" as="alternateBounds" />
          </mxGeometry>
        </mxCell>
        <mxCell id="XqFeGkBjHnRNmWFXuL38-42" style="shape=partialRectangle;html=1;whiteSpace=wrap;connectable=0;strokeColor=inherit;overflow=hidden;fillColor=none;top=0;left=0;bottom=0;right=0;pointerEvents=1;fontSize=11;" parent="XqFeGkBjHnRNmWFXuL38-38" vertex="1">
          <mxGeometry x="240" width="60" height="20" as="geometry">
            <mxRectangle width="60" height="20" as="alternateBounds" />
          </mxGeometry>
        </mxCell>
        <mxCell id="XqFeGkBjHnRNmWFXuL38-105" value="Garage 150 ft x 200 ft&lt;br&gt;= one floor holds 100 cars&lt;br&gt;(for one apartment of 112 ppl)&lt;br&gt;x 5 floors" style="rounded=0;whiteSpace=wrap;html=1;fillColor=#f5f5f5;fontColor=#333333;strokeColor=#666666;" parent="1" vertex="1">
          <mxGeometry x="90" y="140" width="160" height="80" as="geometry" />
        </mxCell>
        <mxCell id="XqFeGkBjHnRNmWFXuL38-4" value="100 ft&lt;br&gt;x&lt;br&gt;100 ft" style="whiteSpace=wrap;html=1;aspect=fixed;" parent="1" vertex="1">
          <mxGeometry x="90" y="260" width="80" height="80" as="geometry" />
        </mxCell>
        <mxCell id="XqFeGkBjHnRNmWFXuL38-8" value="&lt;b&gt;Apartment 50 ft x 100 ft&lt;br&gt;&lt;/b&gt;= 600 sq ft x 6 per floor x 5 floors&lt;br&gt;+ 1200 sq ft x 3 per floor x 5 floors&lt;br&gt;= 2.5 people per household x 45 = &lt;b&gt;112 ppl&lt;/b&gt;" style="shape=callout;whiteSpace=wrap;html=1;perimeter=calloutPerimeter;fillColor=#ffe6cc;strokeColor=#d79b00;opacity=30;" parent="1" vertex="1">
          <mxGeometry x="465" y="231" width="270" height="100" as="geometry" />
        </mxCell>
        <mxCell id="XqFeGkBjHnRNmWFXuL38-113" value="walkaway ? ft x ? ft" style="rounded=0;whiteSpace=wrap;html=1;fillColor=#d5e8d4;strokeColor=#82b366;" parent="1" vertex="1">
          <mxGeometry x="250" y="180" width="590" height="40" as="geometry" />
        </mxCell>
        <mxCell id="XqFeGkBjHnRNmWFXuL38-117" value="" style="rounded=0;whiteSpace=wrap;html=1;fillColor=#ffe6cc;strokeColor=#d79b00;" parent="1" vertex="1">
          <mxGeometry x="800" y="330" width="40" height="80" as="geometry" />
        </mxCell>
        <mxCell id="XqFeGkBjHnRNmWFXuL38-118" value="" style="rounded=0;whiteSpace=wrap;html=1;fillColor=#ffe6cc;strokeColor=#d79b00;" parent="1" vertex="1">
          <mxGeometry x="800" y="450" width="40" height="80" as="geometry" />
        </mxCell>
        <mxCell id="XqFeGkBjHnRNmWFXuL38-124" value="(lot for school?)" style="rounded=0;whiteSpace=wrap;html=1;" parent="1" vertex="1">
          <mxGeometry x="440" y="710" width="320" height="160" as="geometry" />
        </mxCell>
        <mxCell id="YuxdGREvVWaOQCWNcsRS-14" value="" style="shape=table;startSize=0;container=1;collapsible=0;childLayout=tableLayout;fontSize=11;fillColor=#d5e8d4;strokeColor=#82b366;" vertex="1" parent="1">
          <mxGeometry x="155" y="610" width="170" height="60" as="geometry" />
        </mxCell>
        <mxCell id="YuxdGREvVWaOQCWNcsRS-15" value="" style="shape=tableRow;horizontal=0;startSize=0;swimlaneHead=0;swimlaneBody=0;strokeColor=inherit;top=0;left=0;bottom=0;right=0;collapsible=0;dropTarget=0;fillColor=none;points=[[0,0.5],[1,0.5]];portConstraint=eastwest;fontSize=16;" vertex="1" parent="YuxdGREvVWaOQCWNcsRS-14">
          <mxGeometry width="170" height="20" as="geometry" />
        </mxCell>
        <mxCell id="YuxdGREvVWaOQCWNcsRS-16" value="water plant" style="shape=partialRectangle;html=1;whiteSpace=wrap;connectable=0;strokeColor=inherit;overflow=hidden;fillColor=none;top=0;left=0;bottom=0;right=0;pointerEvents=1;fontSize=11;" vertex="1" parent="YuxdGREvVWaOQCWNcsRS-15">
          <mxGeometry width="80" height="20" as="geometry">
            <mxRectangle width="80" height="20" as="alternateBounds" />
          </mxGeometry>
        </mxCell>
        <mxCell id="YuxdGREvVWaOQCWNcsRS-27" value="underground" style="shape=partialRectangle;html=1;whiteSpace=wrap;connectable=0;strokeColor=inherit;overflow=hidden;fillColor=none;top=0;left=0;bottom=0;right=0;pointerEvents=1;fontSize=11;" vertex="1" parent="YuxdGREvVWaOQCWNcsRS-15">
          <mxGeometry x="80" width="90" height="20" as="geometry">
            <mxRectangle width="90" height="20" as="alternateBounds" />
          </mxGeometry>
        </mxCell>
        <mxCell id="YuxdGREvVWaOQCWNcsRS-19" value="" style="shape=tableRow;horizontal=0;startSize=0;swimlaneHead=0;swimlaneBody=0;strokeColor=inherit;top=0;left=0;bottom=0;right=0;collapsible=0;dropTarget=0;fillColor=none;points=[[0,0.5],[1,0.5]];portConstraint=eastwest;fontSize=16;" vertex="1" parent="YuxdGREvVWaOQCWNcsRS-14">
          <mxGeometry y="20" width="170" height="20" as="geometry" />
        </mxCell>
        <mxCell id="YuxdGREvVWaOQCWNcsRS-20" value="sewage" style="shape=partialRectangle;html=1;whiteSpace=wrap;connectable=0;strokeColor=inherit;overflow=hidden;fillColor=none;top=0;left=0;bottom=0;right=0;pointerEvents=1;fontSize=11;" vertex="1" parent="YuxdGREvVWaOQCWNcsRS-19">
          <mxGeometry width="80" height="20" as="geometry">
            <mxRectangle width="80" height="20" as="alternateBounds" />
          </mxGeometry>
        </mxCell>
        <mxCell id="YuxdGREvVWaOQCWNcsRS-28" value="underground" style="shape=partialRectangle;html=1;whiteSpace=wrap;connectable=0;strokeColor=inherit;overflow=hidden;fillColor=none;top=0;left=0;bottom=0;right=0;pointerEvents=1;fontSize=11;" vertex="1" parent="YuxdGREvVWaOQCWNcsRS-19">
          <mxGeometry x="80" width="90" height="20" as="geometry">
            <mxRectangle width="90" height="20" as="alternateBounds" />
          </mxGeometry>
        </mxCell>
        <mxCell id="YuxdGREvVWaOQCWNcsRS-23" value="" style="shape=tableRow;horizontal=0;startSize=0;swimlaneHead=0;swimlaneBody=0;strokeColor=inherit;top=0;left=0;bottom=0;right=0;collapsible=0;dropTarget=0;fillColor=none;points=[[0,0.5],[1,0.5]];portConstraint=eastwest;fontSize=16;" vertex="1" parent="YuxdGREvVWaOQCWNcsRS-14">
          <mxGeometry y="40" width="170" height="20" as="geometry" />
        </mxCell>
        <mxCell id="YuxdGREvVWaOQCWNcsRS-24" value="" style="shape=partialRectangle;html=1;whiteSpace=wrap;connectable=0;strokeColor=inherit;overflow=hidden;fillColor=none;top=0;left=0;bottom=0;right=0;pointerEvents=1;fontSize=11;" vertex="1" parent="YuxdGREvVWaOQCWNcsRS-23">
          <mxGeometry width="80" height="20" as="geometry">
            <mxRectangle width="80" height="20" as="alternateBounds" />
          </mxGeometry>
        </mxCell>
        <mxCell id="YuxdGREvVWaOQCWNcsRS-29" style="shape=partialRectangle;html=1;whiteSpace=wrap;connectable=0;strokeColor=inherit;overflow=hidden;fillColor=none;top=0;left=0;bottom=0;right=0;pointerEvents=1;fontSize=11;" vertex="1" parent="YuxdGREvVWaOQCWNcsRS-23">
          <mxGeometry x="80" width="90" height="20" as="geometry">
            <mxRectangle width="90" height="20" as="alternateBounds" />
          </mxGeometry>
        </mxCell>
        <mxCell id="YuxdGREvVWaOQCWNcsRS-30" value="" style="rounded=0;whiteSpace=wrap;html=1;fillColor=#d5e8d4;strokeColor=#82b366;" vertex="1" parent="1">
          <mxGeometry x="800" y="220" width="40" height="70" as="geometry" />
        </mxCell>
      </root>
    </mxGraphModel>
  </diagram>
</mxfile>
